<svg width="210" height="132" viewBox="0 0 210 132" fill="none" xmlns="http://www.w3.org/2000/svg">
<path d="M26.3359 66.4375C26.332 66.2578 26.3203 66.0781 26.3203 65.8984C26.3203 29.5859 55.7578 0.152344 92.0703 0.152344C122.895 0.152344 148.758 21.3711 155.871 49.9961C159.652 48.8711 163.652 48.2578 167.801 48.2578C190.828 48.2578 209.496 66.9258 209.496 89.9531C209.496 112.98 190.828 131.648 167.801 131.648C154.48 131.648 42.3398 131.648 32.9414 131.648C14.75 131.648 0.00390625 116.902 0.00390625 98.7109C0.00390625 82.7812 11.3086 69.4961 26.3359 66.4375Z" fill="url(#paint0_radial)"/>
<defs>
<radialGradient id="paint0_radial" cx="0" cy="0" r="1" gradientUnits="userSpaceOnUse" gradientTransform="translate(61.9172 -6.23367) scale(178.735)">
<stop stop-color="#CFCED3"/>
<stop offset="0.8111" stop-color="#A5ABBD"/>
<stop offset="1" stop-color="#9AA2B7"/>
</radialGradient>
</defs>
</svg>
