<svg width="185" height="117" viewBox="0 0 185 117" fill="none" xmlns="http://www.w3.org/2000/svg">
<path d="M23.625 58.7383C23.625 58.5781 23.6133 58.4219 23.6133 58.2656C23.6133 26.3164 49.5117 0.421875 81.457 0.421875C108.578 0.421875 131.328 19.0898 137.586 44.2734C140.914 43.2812 144.434 42.7422 148.082 42.7422C168.344 42.7422 184.766 59.1641 184.766 79.4258C184.766 99.6836 168.344 116.109 148.082 116.109C136.363 116.109 37.707 116.109 29.4336 116.109C13.4336 116.109 0.457031 103.137 0.457031 87.1328C0.460938 73.1172 10.4062 61.4297 23.625 58.7383V58.7383Z" fill="url(#paint0_radial)"/>
<path d="M0.460938 87.1289C0.460938 103.133 13.4336 116.105 29.4375 116.105H121.051L106.656 101.715C99.0508 93.6211 88.2578 88.5625 76.2773 88.5625C76.1367 88.5625 76.0039 88.5742 75.8633 88.5742C75.75 88.4648 75.6367 88.3516 75.5195 88.2422L47.9336 60.6523C41.5547 54.0156 33.7852 48.7305 25.1055 45.2266C24.1406 49.418 23.6133 53.7773 23.6133 58.2617C23.6133 58.4219 23.625 58.5781 23.625 58.7383C10.4062 61.4297 0.460938 73.1172 0.460938 87.1289V87.1289Z" fill="url(#paint1_linear)"/>
<defs>
<radialGradient id="paint0_radial" cx="0" cy="0" r="1" gradientUnits="userSpaceOnUse" gradientTransform="translate(54.9292 -5.19731) scale(157.248)">
<stop stop-color="#CFCED3"/>
<stop offset="0.8111" stop-color="#A5ABBD"/>
<stop offset="1" stop-color="#9AA2B7"/>
</radialGradient>
<linearGradient id="paint1_linear" x1="204.013" y1="78.6234" x2="-6.49702" y2="81.9084" gradientUnits="userSpaceOnUse">
<stop offset="0.0018" stop-color="#9AA2B7" stop-opacity="0"/>
<stop offset="0.3682" stop-color="#848A9C" stop-opacity="0.368627"/>
<stop offset="1" stop-color="#606572"/>
</linearGradient>
</defs>
</svg>
