<svg width="31" height="31" viewBox="0 0 31 31" fill="none" xmlns="http://www.w3.org/2000/svg">
<ellipse cx="15.7424" cy="15.2566" rx="15.2575" ry="15.2566" fill="#AEAEAE"/>
<path d="M14.8825 14.153C15.1747 13.7148 15.3207 13.2035 15.3207 12.6193C15.3207 11.0855 14.006 9.91699 12.5453 9.91699H8.30904C8.08992 9.91699 7.94385 10.0631 7.94385 10.2822V19.5575C7.94385 19.7766 8.08992 19.9227 8.30904 19.9227H12.9835C14.7364 19.9227 16.1972 18.535 16.1972 16.7822C16.1972 15.6867 15.6859 14.7373 14.8825 14.153ZM9.76981 11.8159H12.5453C13.0565 11.8159 13.4217 12.2541 13.4217 12.6923C13.4217 13.2035 12.9835 13.5687 12.5453 13.5687H9.76981V11.8159ZM13.0565 18.0968H9.76981V15.4676H13.0565C13.7869 15.4676 14.3712 16.0519 14.3712 16.7822C14.3712 17.5125 13.7869 18.0968 13.0565 18.0968Z" fill="white"/>
<path d="M24.3045 16.1249C24.3045 13.9339 22.6246 12.1811 20.5065 12.1811C18.3884 12.1811 16.7085 13.9339 16.7085 16.1249C16.7085 18.3159 18.3884 20.0688 20.5065 20.0688C21.7481 20.0688 22.9167 19.4114 23.6471 18.3159C23.7202 18.1699 23.7932 18.0238 23.8663 17.8777C23.9393 17.8047 23.8662 17.6586 23.7202 17.6586H21.8942C21.8212 17.6586 21.8212 17.6586 21.7481 17.7317C21.3829 18.0968 20.9447 18.2429 20.5065 18.2429C19.557 18.2429 18.8266 17.5856 18.6075 16.6361H23.9393C24.1584 16.6361 24.3045 16.4901 24.3045 16.271V16.1249ZM20.5065 14.0799C21.1638 14.0799 21.7481 14.4451 22.1133 15.0294H18.8996C19.1918 14.4451 19.8491 14.0799 20.5065 14.0799Z" fill="white"/>
<path d="M22.0403 11.7429H18.6805C18.5344 11.7429 18.3884 11.5968 18.3884 11.4507V10.6473C18.3884 10.5013 18.5344 10.3552 18.6805 10.3552H22.0403C22.1864 10.3552 22.3324 10.5013 22.3324 10.6473V11.5238C22.3324 11.5968 22.2594 11.7429 22.0403 11.7429Z" fill="white"/>
</svg>
