<svg width="23" height="16" viewBox="0 0 23 16" fill="none" xmlns="http://www.w3.org/2000/svg">
<rect width="23" height="16" rx="2" fill="white"/>
<mask id="mask0" mask-type="alpha" maskUnits="userSpaceOnUse" x="0" y="0" width="23" height="16">
<rect width="23" height="16" rx="2" fill="white"/>
</mask>
<g mask="url(#mask0)">
<rect width="23" height="16" fill="#30C6E0"/>
<path fill-rule="evenodd" clip-rule="evenodd" d="M11.5001 11.2C13.3147 11.2 14.7858 9.7673 14.7858 7.99999C14.7858 6.23268 13.3147 4.79999 11.5001 4.79999C9.68542 4.79999 8.21436 6.23268 8.21436 7.99999C8.21436 9.7673 9.68542 11.2 11.5001 11.2Z" fill="#FFCD4B"/>
<path fill-rule="evenodd" clip-rule="evenodd" d="M10.1595 13.7196L11.4999 11.7709L12.8403 13.7196L13.1798 11.3975L15.2557 12.5867L14.5271 10.3511L16.9271 10.5455L15.2747 8.83911L17.5237 8L15.2747 7.1609L16.9271 5.45455L14.5271 5.64889L15.2557 3.41326L13.1798 4.60255L12.8403 2.28043L11.4999 4.22911L10.1595 2.28043L9.81993 4.60255L7.7441 3.41326L8.47271 5.64889L6.07262 5.45455L7.72506 7.1609L5.47607 8L7.72506 8.83911L6.07262 10.5455L8.47271 10.3511L7.7441 12.5867L9.81993 11.3975L10.1595 13.7196ZM15.3332 8C15.3332 10.0619 13.617 11.7333 11.4999 11.7333C9.38282 11.7333 7.66658 10.0619 7.66658 8C7.66658 5.93814 9.38282 4.26667 11.4999 4.26667C13.617 4.26667 15.3332 5.93814 15.3332 8Z" fill="#FFCD4B"/>
<path fill-rule="evenodd" clip-rule="evenodd" d="M1.09521 1.39998C1.09521 1.21589 1.24445 1.06665 1.42855 1.06665H1.85712C2.04121 1.06665 2.19045 1.21589 2.19045 1.39998V1.79998C2.19045 1.98408 2.04121 2.13332 1.85712 2.13332H1.42855C1.24445 2.13332 1.09521 1.98408 1.09521 1.79998V1.39998ZM1.09521 3.53332C1.09521 3.34922 1.24445 3.19999 1.42855 3.19999H1.85712C2.04121 3.19999 2.19045 3.34922 2.19045 3.53332V3.93332C2.19045 4.11741 2.04121 4.26665 1.85712 4.26665H1.42855C1.24445 4.26665 1.09521 4.11741 1.09521 3.93332V3.53332ZM1.42855 5.33332C1.24445 5.33332 1.09521 5.48255 1.09521 5.66665V6.06665C1.09521 6.25074 1.24445 6.39998 1.42855 6.39998H1.85712C2.04121 6.39998 2.19045 6.25074 2.19045 6.06665V5.66665C2.19045 5.48255 2.04121 5.33332 1.85712 5.33332H1.42855ZM1.09521 7.79998C1.09521 7.61589 1.24445 7.46665 1.42855 7.46665H1.85712C2.04121 7.46665 2.19045 7.61589 2.19045 7.79998V8.19998C2.19045 8.38408 2.04121 8.53332 1.85712 8.53332H1.42855C1.24445 8.53332 1.09521 8.38408 1.09521 8.19998V7.79998ZM1.42855 9.59999C1.24445 9.59999 1.09521 9.74922 1.09521 9.93332V10.3333C1.09521 10.5174 1.24445 10.6667 1.42855 10.6667H1.85712C2.04121 10.6667 2.19045 10.5174 2.19045 10.3333V9.93332C2.19045 9.74922 2.04121 9.59999 1.85712 9.59999H1.42855ZM1.09521 12.0666C1.09521 11.8826 1.24445 11.7333 1.42855 11.7333H1.85712C2.04121 11.7333 2.19045 11.8826 2.19045 12.0666V12.4666C2.19045 12.6507 2.04121 12.8 1.85712 12.8H1.42855C1.24445 12.8 1.09521 12.6507 1.09521 12.4666V12.0666ZM1.42855 13.8666C1.24445 13.8666 1.09521 14.0159 1.09521 14.2V14.6C1.09521 14.7841 1.24445 14.9333 1.42855 14.9333H1.85712C2.04121 14.9333 2.19045 14.7841 2.19045 14.6V14.2C2.19045 14.0159 2.04121 13.8666 1.85712 13.8666H1.42855ZM2.19042 13.1333C2.19042 12.9492 2.33966 12.8 2.52376 12.8H2.95233C3.13642 12.8 3.28566 12.9492 3.28566 13.1333V13.5333C3.28566 13.7174 3.13642 13.8667 2.95233 13.8667H2.52376C2.33966 13.8667 2.19042 13.7174 2.19042 13.5333V13.1333ZM2.52376 10.6666C2.33966 10.6666 2.19042 10.8159 2.19042 11V11.4C2.19042 11.5841 2.33966 11.7333 2.52376 11.7333H2.95233C3.13642 11.7333 3.28566 11.5841 3.28566 11.4V11C3.28566 10.8159 3.13642 10.6666 2.95233 10.6666H2.52376ZM2.19042 8.86665C2.19042 8.68255 2.33966 8.53331 2.52376 8.53331H2.95233C3.13642 8.53331 3.28566 8.68255 3.28566 8.86665V9.26665C3.28566 9.45074 3.13642 9.59998 2.95233 9.59998H2.52376C2.33966 9.59998 2.19042 9.45074 2.19042 9.26665V8.86665ZM2.52376 6.39999C2.33966 6.39999 2.19042 6.54922 2.19042 6.73332V7.13332C2.19042 7.31741 2.33966 7.46665 2.52376 7.46665H2.95233C3.13642 7.46665 3.28566 7.31741 3.28566 7.13332V6.73332C3.28566 6.54922 3.13642 6.39999 2.95233 6.39999H2.52376ZM2.19042 4.59998C2.19042 4.41589 2.33966 4.26665 2.52376 4.26665H2.95233C3.13642 4.26665 3.28566 4.41589 3.28566 4.59998V4.99998C3.28566 5.18408 3.13642 5.33332 2.95233 5.33332H2.52376C2.33966 5.33332 2.19042 5.18408 2.19042 4.99998V4.59998ZM2.52376 2.13332C2.33966 2.13332 2.19042 2.28255 2.19042 2.46665V2.86665C2.19042 3.05074 2.33966 3.19998 2.52376 3.19998H2.95233C3.13642 3.19998 3.28566 3.05074 3.28566 2.86665V2.46665C3.28566 2.28255 3.13642 2.13332 2.95233 2.13332H2.52376Z" fill="#FFCD4B"/>
</g>
</svg>
