<svg width="31" height="31" viewBox="0 0 31 31" fill="none" xmlns="http://www.w3.org/2000/svg">
<ellipse cx="15.2575" cy="15.2566" rx="15.2575" ry="15.2566" fill="#AEAEAE"/>
<path d="M20.2776 9.1543H10.9999C9.95238 9.1543 9.1543 9.95233 9.1543 10.9998V20.2769C9.1543 21.3244 9.95238 22.1224 10.9999 22.1224H20.2776C21.3251 22.1224 22.1232 21.3244 22.1232 20.2769V10.9998C22.1232 9.95233 21.3251 9.1543 20.2776 9.1543ZM15.6387 19.5288C17.7836 19.5288 19.5294 17.8329 19.5294 15.788C19.5294 15.4388 19.4795 15.0398 19.3797 14.7406H20.4771V20.0275C20.4771 20.2769 20.2776 20.5263 19.9783 20.5263H11.2991C11.0497 20.5263 10.8003 20.3268 10.8003 20.0275V14.6907H11.9476C11.8478 15.0398 11.7979 15.389 11.7979 15.7381C11.7481 17.8329 13.4939 19.5288 15.6387 19.5288ZM15.6387 18.0325C14.2421 18.0325 13.1447 16.9352 13.1447 15.5885C13.1447 14.2418 14.2421 13.1445 15.6387 13.1445C17.0354 13.1445 18.1327 14.2418 18.1327 15.5885C18.1327 16.985 17.0354 18.0325 15.6387 18.0325ZM20.4272 12.6956C20.4272 12.9948 20.1778 13.2442 19.8785 13.2442H18.4819C18.1826 13.2442 17.9332 12.9948 17.9332 12.6956V11.3489C17.9332 11.0496 18.1826 10.8002 18.4819 10.8002H19.8785C20.1778 10.8002 20.4272 11.0496 20.4272 11.3489V12.6956Z" fill="white"/>
</svg>
