<svg width="222" height="56" viewBox="0 0 222 56" fill="none" xmlns="http://www.w3.org/2000/svg">
<path d="M26.376 25.592C26.376 25.7413 26.2827 25.816 26.096 25.816C25.9467 25.816 25.8533 25.76 25.816 25.648L25.704 25.424C25.4053 24.3413 25.0693 23.3147 24.696 22.344C24.36 21.3733 23.9493 20.496 23.464 19.712C22.792 18.5547 21.7467 17.6587 20.328 17.024C18.9467 16.3893 17.4907 16.0533 15.96 16.016C14.4293 15.9413 12.9733 16.1467 11.592 16.632C10.248 17.1173 9.27733 17.864 8.68 18.872C7.93333 20.104 7.448 21.5787 7.224 23.296C7.03733 25.0133 6.944 26.824 6.944 28.728C6.944 29.9227 6.98133 31.1173 7.056 32.312C7.13067 33.4693 7.28 34.5707 7.504 35.616C7.76533 36.624 8.13867 37.5387 8.624 38.36C9.10933 39.144 9.76267 39.76 10.584 40.208C11.1813 40.544 11.9093 40.768 12.768 40.88C13.664 40.9547 14.5413 40.9173 15.4 40.768C16.296 40.5813 17.136 40.2827 17.92 39.872C18.704 39.424 19.3013 38.8267 19.712 38.08C19.8987 37.744 20.0293 37.296 20.104 36.736C20.216 36.1387 20.2533 35.5413 20.216 34.944C20.216 34.3093 20.1227 33.6933 19.936 33.096C19.7867 32.4987 19.5627 31.9947 19.264 31.584C18.5173 30.688 17.2853 30.2027 15.568 30.128C15.5307 30.128 15.4747 30.1093 15.4 30.072C15.2507 29.9973 15.176 29.904 15.176 29.792C15.176 29.68 15.232 29.5867 15.344 29.512C15.4187 29.4747 15.4933 29.456 15.568 29.456H24.248C24.808 29.4187 25.2 29.6053 25.424 30.016C25.6853 30.4267 25.8347 30.9307 25.872 31.528C25.9093 32.1253 25.8907 32.7413 25.816 33.376C25.7787 34.0107 25.76 34.5333 25.76 34.944V41.104C25.76 41.1413 25.7413 41.1787 25.704 41.216C25.592 41.328 25.5173 41.384 25.48 41.384C25.368 41.384 25.2747 41.3467 25.2 41.272C25.1627 41.2347 25.1253 41.1787 25.088 41.104C24.5653 40.656 23.9867 40.2827 23.352 39.984C22.7173 39.6853 21.7653 39.6853 20.496 39.984C19.8613 40.1333 19.2267 40.3573 18.592 40.656C17.9573 40.9173 17.248 41.1787 16.464 41.44C15.68 41.664 14.7653 41.8133 13.72 41.888C12.712 41.9253 11.5173 41.7947 10.136 41.496C8.68 41.16 7.336 40.6187 6.104 39.872C4.872 39.1253 3.82667 38.192 2.968 37.072C2.10933 35.952 1.43733 34.664 0.952 33.208C0.466667 31.752 0.224 30.1467 0.224 28.392C0.224 27.3467 0.373333 26.3013 0.672 25.256C0.970667 24.1733 1.4 23.1467 1.96 22.176C2.52 21.168 3.192 20.2533 3.976 19.432C4.79733 18.6107 5.712 17.8827 6.72 17.248C8.32533 16.24 10.0613 15.6427 11.928 15.456C13.832 15.232 15.68 15.1387 17.472 15.176C19.264 15.2133 20.9067 15.2507 22.4 15.288C23.8933 15.288 25.032 15.0267 25.816 14.504C25.9653 14.392 26.096 14.3547 26.208 14.392C26.32 14.4293 26.3387 14.5973 26.264 14.896C25.7413 15.9413 25.4613 17.0613 25.424 18.256C25.3867 19.4507 25.4427 20.5893 25.592 21.672C25.7413 22.904 26.0027 24.1547 26.376 25.424V25.592ZM64.0824 41.384C64.1197 41.384 64.157 41.4027 64.1944 41.44C64.269 41.5147 64.3064 41.608 64.3064 41.72C64.3064 41.7947 64.269 41.8693 64.1944 41.944C64.157 41.9813 64.1197 42 64.0824 42C62.029 42 60.517 41.8133 59.5464 41.44C58.613 41.0293 57.9784 40.3013 57.6424 39.256C57.3064 38.1733 57.1757 36.6987 57.2504 34.832C57.325 32.928 57.3624 30.4827 57.3624 27.496C57.325 26.6373 57.2504 25.928 57.1384 25.368C57.0637 24.808 56.8957 24.304 56.6344 23.856C56.3357 23.3707 55.925 23.016 55.4024 22.792C54.8797 22.568 54.3197 22.512 53.7224 22.624C53.125 22.736 52.509 23.016 51.8744 23.464C51.277 23.8747 50.7544 24.4533 50.3064 25.2C50.4184 25.536 50.493 25.8907 50.5304 26.264C50.5677 26.6 50.605 26.936 50.6424 27.272C50.6797 27.9067 50.6984 28.784 50.6984 29.904C50.7357 30.9867 50.7544 32.1253 50.7544 33.32C50.7544 34.4773 50.7357 35.56 50.6984 36.568C50.6984 37.576 50.6984 38.304 50.6984 38.752C50.6984 39.8347 50.9037 40.544 51.3144 40.88C51.7624 41.216 52.509 41.384 53.5544 41.384C53.8157 41.384 53.9464 41.496 53.9464 41.72C53.9464 41.9067 53.8157 42.0187 53.5544 42.056H43.0824C43.0077 42.056 42.9517 42.0373 42.9144 42C42.8397 41.9253 42.8024 41.8133 42.8024 41.664C42.8024 41.5893 42.8397 41.5147 42.9144 41.44C42.9517 41.4027 43.0077 41.384 43.0824 41.384C44.165 41.384 44.9117 41.216 45.3224 40.88C45.7704 40.544 45.9944 39.8347 45.9944 38.752C45.9944 38.3787 45.9944 37.688 45.9944 36.68C45.9944 35.6347 45.9944 34.5333 45.9944 33.376C46.0317 32.1813 46.0504 31.0427 46.0504 29.96C46.0504 28.84 46.0504 28.0187 46.0504 27.496C46.0504 26.9733 46.013 26.4507 45.9384 25.928C45.901 25.4053 45.789 24.92 45.6024 24.472C45.453 24.024 45.2104 23.6507 44.8744 23.352C44.5757 23.016 44.1837 22.792 43.6984 22.68C43.101 22.5307 42.5224 22.5493 41.9624 22.736C41.4397 22.9227 40.9357 23.2213 40.4504 23.632C39.965 24.0053 39.5357 24.4533 39.1624 24.976C38.789 25.4987 38.4717 26.04 38.2104 26.6C38.2104 27.384 38.2104 28.112 38.2104 28.784C38.2104 29.456 38.2104 30.2213 38.2104 31.08C38.2104 31.9387 38.2104 32.9653 38.2104 34.16C38.2104 35.3547 38.2104 36.8853 38.2104 38.752C38.2104 39.8347 38.4157 40.544 38.8264 40.88C39.2744 41.216 40.021 41.384 41.0664 41.384C41.3277 41.384 41.4584 41.496 41.4584 41.72C41.4584 41.9067 41.3277 42.0187 41.0664 42.056H30.5944C30.5197 42.056 30.4637 42.0373 30.4264 42C30.3144 41.9627 30.2584 41.8507 30.2584 41.664C30.2584 41.5893 30.3144 41.5147 30.4264 41.44C30.4637 41.4027 30.5197 41.384 30.5944 41.384C31.6397 41.384 32.3864 41.216 32.8344 40.88C33.2824 40.544 33.5064 39.8347 33.5064 38.752C33.5064 38.0427 33.4877 37.1653 33.4504 36.12C33.4504 35.0373 33.4317 33.9733 33.3944 32.928C33.3944 31.8827 33.3944 30.9493 33.3944 30.128C33.3944 29.2693 33.3944 28.6907 33.3944 28.392C33.3944 27.2347 33.469 26.208 33.6184 25.312C33.805 24.3787 34.1224 23.6133 34.5704 23.016C35.0557 22.4187 35.709 21.9893 36.5304 21.728C37.389 21.4293 38.4904 21.2987 39.8344 21.336C39.8717 21.336 39.909 21.3547 39.9464 21.392C40.021 21.4667 40.0584 21.56 40.0584 21.672C40.0584 21.784 40.021 21.8773 39.9464 21.952C39.909 21.9893 39.8717 22.008 39.8344 22.008C39.5357 22.0453 39.2744 22.1387 39.0504 22.288C38.8637 22.4373 38.677 22.6427 38.4904 22.904C38.341 23.1653 38.2664 23.5573 38.2664 24.08V24.976C39.0877 23.7813 39.9277 22.9227 40.7864 22.4C41.645 21.8773 42.6717 21.5787 43.8664 21.504C45.173 21.4293 46.3864 21.5973 47.5064 22.008C48.6264 22.3813 49.4664 23.1653 50.0264 24.36C50.6984 23.352 51.501 22.6427 52.4344 22.232C53.405 21.784 54.357 21.5413 55.2904 21.504C56.2237 21.4293 57.0824 21.504 57.8664 21.728C58.6877 21.952 59.3037 22.1947 59.7144 22.456C60.4984 22.9787 61.0397 23.6507 61.3384 24.472C61.6744 25.2933 61.8797 26.2267 61.9544 27.272C62.0664 28.728 62.085 30.296 62.0104 31.976C61.973 33.6187 61.973 35.1493 62.0104 36.568C62.0477 37.9493 62.197 39.1067 62.4584 40.04C62.757 40.936 63.2984 41.384 64.0824 41.384Z" fill="white"/>
<path d="M80.478 24.726C80.478 24.774 80.448 24.798 80.388 24.798C80.34 24.798 80.31 24.78 80.298 24.744L80.262 24.672C80.166 24.324 80.058 23.994 79.938 23.682C79.83 23.37 79.698 23.088 79.542 22.836C79.326 22.464 78.99 22.176 78.534 21.972C78.09 21.768 77.622 21.66 77.13 21.648C76.638 21.624 76.17 21.69 75.726 21.846C75.294 22.002 74.982 22.242 74.79 22.566C74.55 22.962 74.394 23.436 74.322 23.988C74.262 24.54 74.232 25.122 74.232 25.734C74.232 26.118 74.244 26.502 74.268 26.886C74.292 27.258 74.34 27.612 74.412 27.948C74.496 28.272 74.616 28.566 74.772 28.83C74.928 29.082 75.138 29.28 75.402 29.424C75.594 29.532 75.828 29.604 76.104 29.64C76.392 29.664 76.674 29.652 76.95 29.604C77.238 29.544 77.508 29.448 77.76 29.316C78.012 29.172 78.204 28.98 78.336 28.74C78.396 28.632 78.438 28.488 78.462 28.308C78.498 28.116 78.51 27.924 78.498 27.732C78.498 27.528 78.468 27.33 78.408 27.138C78.36 26.946 78.288 26.784 78.192 26.652C77.952 26.364 77.556 26.208 77.004 26.184C76.992 26.184 76.974 26.178 76.95 26.166C76.902 26.142 76.878 26.112 76.878 26.076C76.878 26.04 76.896 26.01 76.932 25.986C76.956 25.974 76.98 25.968 77.004 25.968H79.794C79.974 25.956 80.1 26.016 80.172 26.148C80.256 26.28 80.304 26.442 80.316 26.634C80.328 26.826 80.322 27.024 80.298 27.228C80.286 27.432 80.28 27.6 80.28 27.732V29.712C80.28 29.724 80.274 29.736 80.262 29.748C80.226 29.784 80.202 29.802 80.19 29.802C80.154 29.802 80.124 29.79 80.1 29.766C80.088 29.754 80.076 29.736 80.064 29.712C79.896 29.568 79.71 29.448 79.506 29.352C79.302 29.256 78.996 29.256 78.588 29.352C78.384 29.4 78.18 29.472 77.976 29.568C77.772 29.652 77.544 29.736 77.292 29.82C77.04 29.892 76.746 29.94 76.41 29.964C76.086 29.976 75.702 29.934 75.258 29.838C74.79 29.73 74.358 29.556 73.962 29.316C73.566 29.076 73.23 28.776 72.954 28.416C72.678 28.056 72.462 27.642 72.306 27.174C72.15 26.706 72.072 26.19 72.072 25.626C72.072 25.29 72.12 24.954 72.216 24.618C72.312 24.27 72.45 23.94 72.63 23.628C72.81 23.304 73.026 23.01 73.278 22.746C73.542 22.482 73.836 22.248 74.16 22.044C74.676 21.72 75.234 21.528 75.834 21.468C76.446 21.396 77.04 21.366 77.616 21.378C78.192 21.39 78.72 21.402 79.2 21.414C79.68 21.414 80.046 21.33 80.298 21.162C80.346 21.126 80.388 21.114 80.424 21.126C80.46 21.138 80.466 21.192 80.442 21.288C80.274 21.624 80.184 21.984 80.172 22.368C80.16 22.752 80.178 23.118 80.226 23.466C80.274 23.862 80.358 24.264 80.478 24.672V24.726ZM87.9023 29.838C87.9143 29.838 87.9263 29.844 87.9383 29.856C87.9623 29.88 87.9743 29.904 87.9743 29.928C87.9743 29.964 87.9623 29.994 87.9383 30.018C87.9263 30.03 87.9143 30.036 87.9023 30.036C87.4583 30.036 87.0143 29.994 86.5703 29.91C86.1383 29.814 85.7843 29.592 85.5083 29.244C85.1843 29.568 84.7943 29.802 84.3383 29.946C83.8823 30.09 83.4203 30.036 82.9523 29.784C82.6523 29.616 82.4543 29.394 82.3583 29.118C82.3223 29.022 82.2983 28.902 82.2863 28.758C82.2743 28.614 82.2983 28.446 82.3583 28.254C82.4183 28.062 82.5263 27.852 82.6823 27.624C82.8503 27.384 83.0903 27.126 83.4023 26.85C83.6303 26.658 83.8643 26.484 84.1043 26.328C84.3443 26.172 84.5543 26.028 84.7343 25.896C84.9263 25.764 85.0823 25.638 85.2023 25.518C85.3223 25.398 85.3823 25.272 85.3823 25.14C85.3823 24.972 85.3763 24.798 85.3643 24.618C85.3523 24.438 85.3103 24.27 85.2383 24.114C85.1663 23.958 85.0523 23.832 84.8963 23.736C84.7523 23.64 84.5483 23.592 84.2843 23.592C83.9843 23.592 83.7563 23.676 83.6003 23.844C83.4563 24.012 83.3543 24.216 83.2943 24.456C83.2463 24.684 83.2283 24.918 83.2403 25.158C83.2523 25.398 83.2643 25.59 83.2763 25.734C83.2883 25.806 83.2343 25.83 83.1143 25.806C83.0063 25.782 82.8863 25.728 82.7543 25.644C82.6223 25.548 82.4963 25.428 82.3763 25.284C82.2683 25.128 82.2143 24.954 82.2143 24.762C82.2143 24.378 82.4603 24.042 82.9523 23.754C83.1683 23.634 83.4143 23.544 83.6903 23.484C83.9783 23.412 84.2663 23.376 84.5543 23.376C85.3343 23.376 85.9343 23.562 86.3543 23.934C86.7743 24.306 86.9843 24.858 86.9843 25.59C86.9843 26.118 86.9783 26.64 86.9663 27.156C86.9543 27.66 86.9663 28.11 87.0023 28.506C87.0503 28.902 87.1403 29.226 87.2723 29.478C87.4043 29.718 87.6143 29.838 87.9023 29.838ZM84.6983 29.406C84.9743 29.406 85.1603 29.328 85.2563 29.172C85.3523 29.016 85.4003 28.8 85.4003 28.524V26.094V25.716C85.3523 25.74 85.3103 25.77 85.2743 25.806C85.2383 25.83 85.1963 25.854 85.1483 25.878C84.8843 26.058 84.6263 26.256 84.3743 26.472C84.1223 26.688 83.9423 26.892 83.8343 27.084C83.7383 27.252 83.6723 27.42 83.6363 27.588C83.6123 27.756 83.6003 27.918 83.6003 28.074C83.6123 28.218 83.6363 28.35 83.6723 28.47C83.7203 28.59 83.7623 28.692 83.7983 28.776C84.0263 29.196 84.3263 29.406 84.6983 29.406ZM99.98 29.802C99.992 29.802 100.004 29.808 100.016 29.82C100.04 29.844 100.052 29.874 100.052 29.91C100.052 29.934 100.04 29.958 100.016 29.982C100.004 29.994 99.992 30 99.98 30C99.32 30 98.834 29.94 98.522 29.82C98.222 29.688 98.018 29.454 97.91 29.118C97.802 28.77 97.76 28.296 97.784 27.696C97.808 27.084 97.82 26.298 97.82 25.338C97.808 25.062 97.784 24.834 97.748 24.654C97.724 24.474 97.67 24.312 97.586 24.168C97.49 24.012 97.358 23.898 97.19 23.826C97.022 23.754 96.842 23.736 96.65 23.772C96.458 23.808 96.26 23.898 96.056 24.042C95.864 24.174 95.696 24.36 95.552 24.6C95.588 24.708 95.612 24.822 95.624 24.942C95.636 25.05 95.648 25.158 95.66 25.266C95.672 25.47 95.678 25.752 95.678 26.112C95.69 26.46 95.696 26.826 95.696 27.21C95.696 27.582 95.69 27.93 95.678 28.254C95.678 28.578 95.678 28.812 95.678 28.956C95.678 29.304 95.744 29.532 95.876 29.64C96.02 29.748 96.26 29.802 96.596 29.802C96.68 29.802 96.722 29.838 96.722 29.91C96.722 29.97 96.68 30.006 96.596 30.018H93.23C93.206 30.018 93.188 30.012 93.176 30C93.152 29.976 93.14 29.94 93.14 29.892C93.14 29.868 93.152 29.844 93.176 29.82C93.188 29.808 93.206 29.802 93.23 29.802C93.578 29.802 93.818 29.748 93.95 29.64C94.094 29.532 94.166 29.304 94.166 28.956C94.166 28.836 94.166 28.614 94.166 28.29C94.166 27.954 94.166 27.6 94.166 27.228C94.178 26.844 94.184 26.478 94.184 26.13C94.184 25.77 94.184 25.506 94.184 25.338C94.184 25.17 94.172 25.002 94.148 24.834C94.136 24.666 94.1 24.51 94.04 24.366C93.992 24.222 93.914 24.102 93.806 24.006C93.71 23.898 93.584 23.826 93.428 23.79C93.236 23.742 93.05 23.748 92.87 23.808C92.702 23.868 92.54 23.964 92.384 24.096C92.228 24.216 92.09 24.36 91.97 24.528C91.85 24.696 91.748 24.87 91.664 25.05C91.664 25.302 91.664 25.536 91.664 25.752C91.664 25.968 91.664 26.214 91.664 26.49C91.664 26.766 91.664 27.096 91.664 27.48C91.664 27.864 91.664 28.356 91.664 28.956C91.664 29.304 91.73 29.532 91.862 29.64C92.006 29.748 92.246 29.802 92.582 29.802C92.666 29.802 92.708 29.838 92.708 29.91C92.708 29.97 92.666 30.006 92.582 30.018H89.216C89.192 30.018 89.174 30.012 89.162 30C89.126 29.988 89.108 29.952 89.108 29.892C89.108 29.868 89.126 29.844 89.162 29.82C89.174 29.808 89.192 29.802 89.216 29.802C89.552 29.802 89.792 29.748 89.936 29.64C90.08 29.532 90.152 29.304 90.152 28.956C90.152 28.728 90.146 28.446 90.134 28.11C90.134 27.762 90.128 27.42 90.116 27.084C90.116 26.748 90.116 26.448 90.116 26.184C90.116 25.908 90.116 25.722 90.116 25.626C90.116 25.254 90.14 24.924 90.188 24.636C90.248 24.336 90.35 24.09 90.494 23.898C90.65 23.706 90.86 23.568 91.124 23.484C91.4 23.388 91.754 23.346 92.186 23.358C92.198 23.358 92.21 23.364 92.222 23.376C92.246 23.4 92.258 23.43 92.258 23.466C92.258 23.502 92.246 23.532 92.222 23.556C92.21 23.568 92.198 23.574 92.186 23.574C92.09 23.586 92.006 23.616 91.934 23.664C91.874 23.712 91.814 23.778 91.754 23.862C91.706 23.946 91.682 24.072 91.682 24.24V24.528C91.946 24.144 92.216 23.868 92.492 23.7C92.768 23.532 93.098 23.436 93.482 23.412C93.902 23.388 94.292 23.442 94.652 23.574C95.012 23.694 95.282 23.946 95.462 24.33C95.678 24.006 95.936 23.778 96.236 23.646C96.548 23.502 96.854 23.424 97.154 23.412C97.454 23.388 97.73 23.412 97.982 23.484C98.246 23.556 98.444 23.634 98.576 23.718C98.828 23.886 99.002 24.102 99.098 24.366C99.206 24.63 99.272 24.93 99.296 25.266C99.332 25.734 99.338 26.238 99.314 26.778C99.302 27.306 99.302 27.798 99.314 28.254C99.326 28.698 99.374 29.07 99.458 29.37C99.554 29.658 99.728 29.802 99.98 29.802ZM112.196 29.802C112.208 29.802 112.22 29.808 112.232 29.82C112.256 29.844 112.268 29.874 112.268 29.91C112.268 29.934 112.256 29.958 112.232 29.982C112.22 29.994 112.208 30 112.196 30C111.536 30 111.05 29.94 110.738 29.82C110.438 29.688 110.234 29.454 110.126 29.118C110.018 28.77 109.976 28.296 110 27.696C110.024 27.084 110.036 26.298 110.036 25.338C110.024 25.062 110 24.834 109.964 24.654C109.94 24.474 109.886 24.312 109.802 24.168C109.706 24.012 109.574 23.898 109.406 23.826C109.238 23.754 109.058 23.736 108.866 23.772C108.674 23.808 108.476 23.898 108.272 24.042C108.08 24.174 107.912 24.36 107.768 24.6C107.804 24.708 107.828 24.822 107.84 24.942C107.852 25.05 107.864 25.158 107.876 25.266C107.888 25.47 107.894 25.752 107.894 26.112C107.906 26.46 107.912 26.826 107.912 27.21C107.912 27.582 107.906 27.93 107.894 28.254C107.894 28.578 107.894 28.812 107.894 28.956C107.894 29.304 107.96 29.532 108.092 29.64C108.236 29.748 108.476 29.802 108.812 29.802C108.896 29.802 108.938 29.838 108.938 29.91C108.938 29.97 108.896 30.006 108.812 30.018H105.446C105.422 30.018 105.404 30.012 105.392 30C105.368 29.976 105.356 29.94 105.356 29.892C105.356 29.868 105.368 29.844 105.392 29.82C105.404 29.808 105.422 29.802 105.446 29.802C105.794 29.802 106.034 29.748 106.166 29.64C106.31 29.532 106.382 29.304 106.382 28.956C106.382 28.836 106.382 28.614 106.382 28.29C106.382 27.954 106.382 27.6 106.382 27.228C106.394 26.844 106.4 26.478 106.4 26.13C106.4 25.77 106.4 25.506 106.4 25.338C106.4 25.17 106.388 25.002 106.364 24.834C106.352 24.666 106.316 24.51 106.256 24.366C106.208 24.222 106.13 24.102 106.022 24.006C105.926 23.898 105.8 23.826 105.644 23.79C105.452 23.742 105.266 23.748 105.086 23.808C104.918 23.868 104.756 23.964 104.6 24.096C104.444 24.216 104.306 24.36 104.186 24.528C104.066 24.696 103.964 24.87 103.88 25.05C103.88 25.302 103.88 25.536 103.88 25.752C103.88 25.968 103.88 26.214 103.88 26.49C103.88 26.766 103.88 27.096 103.88 27.48C103.88 27.864 103.88 28.356 103.88 28.956C103.88 29.304 103.946 29.532 104.078 29.64C104.222 29.748 104.462 29.802 104.798 29.802C104.882 29.802 104.924 29.838 104.924 29.91C104.924 29.97 104.882 30.006 104.798 30.018H101.432C101.408 30.018 101.39 30.012 101.378 30C101.342 29.988 101.324 29.952 101.324 29.892C101.324 29.868 101.342 29.844 101.378 29.82C101.39 29.808 101.408 29.802 101.432 29.802C101.768 29.802 102.008 29.748 102.152 29.64C102.296 29.532 102.368 29.304 102.368 28.956C102.368 28.728 102.362 28.446 102.35 28.11C102.35 27.762 102.344 27.42 102.332 27.084C102.332 26.748 102.332 26.448 102.332 26.184C102.332 25.908 102.332 25.722 102.332 25.626C102.332 25.254 102.356 24.924 102.404 24.636C102.464 24.336 102.566 24.09 102.71 23.898C102.866 23.706 103.076 23.568 103.34 23.484C103.616 23.388 103.97 23.346 104.402 23.358C104.414 23.358 104.426 23.364 104.438 23.376C104.462 23.4 104.474 23.43 104.474 23.466C104.474 23.502 104.462 23.532 104.438 23.556C104.426 23.568 104.414 23.574 104.402 23.574C104.306 23.586 104.222 23.616 104.15 23.664C104.09 23.712 104.03 23.778 103.97 23.862C103.922 23.946 103.898 24.072 103.898 24.24V24.528C104.162 24.144 104.432 23.868 104.708 23.7C104.984 23.532 105.314 23.436 105.698 23.412C106.118 23.388 106.508 23.442 106.868 23.574C107.228 23.694 107.498 23.946 107.678 24.33C107.894 24.006 108.152 23.778 108.452 23.646C108.764 23.502 109.07 23.424 109.37 23.412C109.67 23.388 109.946 23.412 110.198 23.484C110.462 23.556 110.66 23.634 110.792 23.718C111.044 23.886 111.218 24.102 111.314 24.366C111.422 24.63 111.488 24.93 111.512 25.266C111.548 25.734 111.554 26.238 111.53 26.778C111.518 27.306 111.518 27.798 111.53 28.254C111.542 28.698 111.59 29.07 111.674 29.37C111.77 29.658 111.944 29.802 112.196 29.802ZM119.137 29.838C119.149 29.838 119.161 29.844 119.173 29.856C119.197 29.88 119.209 29.904 119.209 29.928C119.209 29.964 119.197 29.994 119.173 30.018C119.161 30.03 119.149 30.036 119.137 30.036C118.693 30.036 118.249 29.994 117.805 29.91C117.373 29.814 117.019 29.592 116.743 29.244C116.419 29.568 116.029 29.802 115.573 29.946C115.117 30.09 114.655 30.036 114.187 29.784C113.887 29.616 113.689 29.394 113.593 29.118C113.557 29.022 113.533 28.902 113.521 28.758C113.509 28.614 113.533 28.446 113.593 28.254C113.653 28.062 113.761 27.852 113.917 27.624C114.085 27.384 114.325 27.126 114.637 26.85C114.865 26.658 115.099 26.484 115.339 26.328C115.579 26.172 115.789 26.028 115.969 25.896C116.161 25.764 116.317 25.638 116.437 25.518C116.557 25.398 116.617 25.272 116.617 25.14C116.617 24.972 116.611 24.798 116.599 24.618C116.587 24.438 116.545 24.27 116.473 24.114C116.401 23.958 116.287 23.832 116.131 23.736C115.987 23.64 115.783 23.592 115.519 23.592C115.219 23.592 114.991 23.676 114.835 23.844C114.691 24.012 114.589 24.216 114.529 24.456C114.481 24.684 114.463 24.918 114.475 25.158C114.487 25.398 114.499 25.59 114.511 25.734C114.523 25.806 114.469 25.83 114.349 25.806C114.241 25.782 114.121 25.728 113.989 25.644C113.857 25.548 113.731 25.428 113.611 25.284C113.503 25.128 113.449 24.954 113.449 24.762C113.449 24.378 113.695 24.042 114.187 23.754C114.403 23.634 114.649 23.544 114.925 23.484C115.213 23.412 115.501 23.376 115.789 23.376C116.569 23.376 117.169 23.562 117.589 23.934C118.009 24.306 118.219 24.858 118.219 25.59C118.219 26.118 118.213 26.64 118.201 27.156C118.189 27.66 118.201 28.11 118.237 28.506C118.285 28.902 118.375 29.226 118.507 29.478C118.639 29.718 118.849 29.838 119.137 29.838ZM115.933 29.406C116.209 29.406 116.395 29.328 116.491 29.172C116.587 29.016 116.635 28.8 116.635 28.524V26.094V25.716C116.587 25.74 116.545 25.77 116.509 25.806C116.473 25.83 116.431 25.854 116.383 25.878C116.119 26.058 115.861 26.256 115.609 26.472C115.357 26.688 115.177 26.892 115.069 27.084C114.973 27.252 114.907 27.42 114.871 27.588C114.847 27.756 114.835 27.918 114.835 28.074C114.847 28.218 114.871 28.35 114.907 28.47C114.955 28.59 114.997 28.692 115.033 28.776C115.261 29.196 115.561 29.406 115.933 29.406Z" fill="white"/>
<path d="M81.864 35.34C81.876 35.34 81.888 35.346 81.9 35.358C81.936 35.394 81.954 35.418 81.954 35.43C81.954 35.454 81.936 35.484 81.9 35.52C81.888 35.532 81.876 35.538 81.864 35.538H81.576C81.348 35.538 81.144 35.604 80.964 35.736C80.796 35.856 80.676 36.024 80.604 36.24C80.304 37.08 80.064 37.758 79.884 38.274C79.704 38.79 79.554 39.21 79.434 39.534C79.326 39.846 79.242 40.086 79.182 40.254C79.134 40.41 79.086 40.554 79.038 40.686C78.99 40.806 78.936 40.944 78.876 41.1C78.828 41.256 78.756 41.478 78.66 41.766C78.564 41.922 78.444 42 78.3 42C78.168 42 78.066 41.922 77.994 41.766L76.878 39.03C76.842 38.934 76.806 38.844 76.77 38.76C76.746 38.676 76.716 38.592 76.68 38.508C76.656 38.424 76.602 38.382 76.518 38.382C76.446 38.37 76.398 38.394 76.374 38.454C76.158 39.066 75.996 39.522 75.888 39.822C75.792 40.11 75.714 40.338 75.654 40.506C75.594 40.674 75.534 40.836 75.474 40.992C75.414 41.148 75.324 41.406 75.204 41.766C75.108 41.922 74.988 42 74.844 42C74.712 42 74.61 41.922 74.538 41.766L73.422 39.03C73.17 38.346 72.948 37.77 72.756 37.302C72.564 36.834 72.45 36.456 72.414 36.168C72.378 35.868 72.45 35.652 72.63 35.52C72.81 35.388 73.146 35.322 73.638 35.322H74.502C74.514 35.322 74.532 35.328 74.556 35.34C74.592 35.376 74.61 35.406 74.61 35.43C74.598 35.454 74.58 35.478 74.556 35.502C74.544 35.514 74.526 35.52 74.502 35.52C74.334 35.52 74.178 35.55 74.034 35.61C73.902 35.658 73.836 35.766 73.836 35.934C73.836 35.958 73.884 36.108 73.98 36.384C74.076 36.648 74.178 36.942 74.286 37.266C74.406 37.578 74.514 37.872 74.61 38.148C74.718 38.412 74.772 38.544 74.772 38.544C74.832 38.724 74.892 38.898 74.952 39.066C75.012 39.21 75.066 39.354 75.114 39.498C75.162 39.642 75.204 39.762 75.24 39.858C75.396 40.266 75.552 40.236 75.708 39.768C75.732 39.696 75.792 39.516 75.888 39.228C75.984 38.94 76.098 38.622 76.23 38.274C76.254 38.214 76.266 38.136 76.266 38.04C76.278 37.944 76.278 37.848 76.266 37.752C76.266 37.656 76.26 37.572 76.248 37.5C76.236 37.416 76.224 37.356 76.212 37.32C76.08 36.96 75.978 36.654 75.906 36.402C75.846 36.15 75.84 35.946 75.888 35.79C75.948 35.622 76.068 35.502 76.248 35.43C76.44 35.358 76.716 35.322 77.076 35.322H77.958C77.982 35.322 78 35.328 78.012 35.34C78.036 35.364 78.048 35.394 78.048 35.43C78.048 35.454 78.042 35.472 78.03 35.484C78.018 35.484 78.006 35.49 77.994 35.502C77.982 35.514 77.97 35.52 77.958 35.52C77.79 35.52 77.634 35.55 77.49 35.61C77.358 35.658 77.292 35.766 77.292 35.934C77.292 35.958 77.34 36.108 77.436 36.384C77.532 36.648 77.634 36.942 77.742 37.266C77.862 37.578 77.97 37.872 78.066 38.148C78.162 38.412 78.21 38.544 78.21 38.544C78.282 38.724 78.348 38.898 78.408 39.066C78.468 39.21 78.522 39.354 78.57 39.498C78.618 39.642 78.66 39.762 78.696 39.858C78.756 40.05 78.828 40.146 78.912 40.146C78.996 40.134 79.08 40.008 79.164 39.768C79.176 39.732 79.2 39.648 79.236 39.516C79.284 39.384 79.338 39.228 79.398 39.048C79.47 38.856 79.542 38.652 79.614 38.436C79.698 38.208 79.776 37.986 79.848 37.77C80.028 37.254 80.232 36.678 80.46 36.042C80.496 35.922 80.478 35.808 80.406 35.7C80.334 35.592 80.238 35.538 80.118 35.538H79.866C79.854 35.55 79.842 35.55 79.83 35.538C79.806 35.538 79.794 35.508 79.794 35.448C79.794 35.412 79.806 35.382 79.83 35.358C79.842 35.346 79.854 35.34 79.866 35.34H81.864ZM87.8415 40.236C87.8655 40.212 87.8955 40.212 87.9315 40.236C87.9555 40.248 87.9795 40.266 88.0035 40.29C88.0155 40.302 88.0215 40.32 88.0215 40.344C87.9375 40.584 87.8295 40.806 87.6975 41.01C87.5655 41.214 87.3975 41.394 87.1935 41.55C86.9535 41.742 86.6775 41.874 86.3655 41.946C86.0535 42.018 85.7355 42.042 85.4115 42.018C85.0035 41.982 84.6255 41.886 84.2775 41.73C83.9415 41.562 83.6475 41.34 83.3955 41.064C83.1435 40.788 82.9455 40.458 82.8015 40.074C82.6695 39.678 82.6035 39.234 82.6035 38.742C82.5795 38.19 82.6575 37.704 82.8375 37.284C83.0175 36.852 83.2575 36.498 83.5575 36.222C83.8575 35.934 84.1935 35.718 84.5655 35.574C84.9375 35.43 85.3155 35.358 85.6995 35.358C86.0475 35.358 86.3715 35.418 86.6715 35.538C86.9835 35.646 87.2475 35.82 87.4635 36.06C87.6675 36.264 87.8295 36.516 87.9495 36.816C88.0815 37.104 88.1475 37.434 88.1475 37.806C88.1475 37.95 88.1115 38.082 88.0395 38.202C87.9795 38.322 87.8175 38.382 87.5535 38.382C87.2055 38.382 86.8455 38.388 86.4735 38.4C86.1015 38.4 85.7535 38.478 85.4295 38.634C85.1895 38.754 85.0035 38.898 84.8715 39.066C84.7395 39.222 84.6375 39.378 84.5655 39.534C84.4815 39.714 84.4275 39.9 84.4035 40.092C84.4995 40.668 84.6975 41.088 84.9975 41.352C85.3095 41.616 85.6455 41.748 86.0055 41.748C86.3655 41.748 86.7135 41.622 87.0495 41.37C87.3855 41.118 87.6375 40.752 87.8055 40.272L87.8415 40.236ZM84.8355 36.348C84.6675 36.624 84.5475 36.984 84.4755 37.428C84.4035 37.86 84.3555 38.28 84.3315 38.688C84.3195 38.844 84.3435 38.97 84.4035 39.066C84.4635 39.15 84.5115 39.162 84.5475 39.102C84.6435 38.97 84.7515 38.85 84.8715 38.742C85.0035 38.622 85.1475 38.526 85.3035 38.454C85.5435 38.334 85.7595 38.262 85.9515 38.238C86.1555 38.202 86.3295 38.178 86.4735 38.166C86.6175 38.154 86.7315 38.124 86.8155 38.076C86.8995 38.028 86.9475 37.92 86.9595 37.752C86.9835 37.404 86.9595 37.08 86.8875 36.78C86.8155 36.48 86.6955 36.228 86.5275 36.024C86.2875 35.724 86.0175 35.58 85.7175 35.592C85.4175 35.604 85.1235 35.856 84.8355 36.348ZM95.2681 38.67C95.2681 39.822 94.9741 40.692 94.3861 41.28C94.1461 41.508 93.8401 41.694 93.4681 41.838C93.0961 41.97 92.7061 42.036 92.2981 42.036C91.9741 42.036 91.6501 41.994 91.3261 41.91C91.0141 41.814 90.7321 41.664 90.4801 41.46C90.2281 41.256 90.0241 40.992 89.8681 40.668C89.7241 40.332 89.6521 39.93 89.6521 39.462V35.322C89.6281 34.914 89.7181 34.602 89.9221 34.386C90.1381 34.158 90.3781 33.996 90.6421 33.9C90.9541 33.792 91.3021 33.738 91.6861 33.738C91.6981 33.738 91.7101 33.744 91.7221 33.756C91.7461 33.78 91.7581 33.81 91.7581 33.846C91.7581 33.882 91.7461 33.912 91.7221 33.936C91.7101 33.948 91.6981 33.954 91.6861 33.954C91.5901 33.966 91.5061 33.996 91.4341 34.044C91.3741 34.092 91.3141 34.158 91.2541 34.242C91.2061 34.326 91.1821 34.452 91.1821 34.62C91.1821 34.68 91.1821 34.788 91.1821 34.944C91.1821 35.1 91.1761 35.274 91.1641 35.466C91.1641 35.646 91.1641 35.832 91.1641 36.024C91.1641 36.204 91.1641 36.354 91.1641 36.474C91.2001 36.402 91.2601 36.306 91.3441 36.186C91.4401 36.054 91.5541 35.922 91.6861 35.79C91.8301 35.658 91.9921 35.544 92.1721 35.448C92.3641 35.352 92.5681 35.304 92.7841 35.304C93.2401 35.304 93.6241 35.394 93.9361 35.574C94.2481 35.754 94.5001 36 94.6921 36.312C94.8961 36.612 95.0401 36.966 95.1241 37.374C95.2201 37.782 95.2681 38.214 95.2681 38.67ZM93.4321 38.616C93.4321 38.364 93.4321 38.1 93.4321 37.824C93.4441 37.548 93.4381 37.284 93.4141 37.032C93.3901 36.78 93.3481 36.552 93.2881 36.348C93.2281 36.132 93.1321 35.964 93.0001 35.844C92.8441 35.688 92.6701 35.628 92.4781 35.664C92.2861 35.7 92.1001 35.796 91.9201 35.952C91.7401 36.096 91.5781 36.282 91.4341 36.51C91.3021 36.726 91.2181 36.936 91.1821 37.14C91.1821 37.14 91.1761 37.2 91.1641 37.32C91.1641 37.44 91.1581 37.596 91.1461 37.788C91.1341 37.98 91.1281 38.202 91.1281 38.454C91.1281 38.706 91.1341 38.97 91.1461 39.246C91.1461 39.726 91.1761 40.128 91.2361 40.452C91.3081 40.764 91.3981 41.022 91.5061 41.226C91.6141 41.418 91.7341 41.562 91.8661 41.658C91.9981 41.742 92.1361 41.784 92.2801 41.784C92.5321 41.784 92.7301 41.724 92.8741 41.604C93.0301 41.484 93.1501 41.298 93.2341 41.046C93.3181 40.794 93.3721 40.47 93.3961 40.074C93.4201 39.666 93.4321 39.18 93.4321 38.616ZM102.773 36.78V37.32H96.7425V36.78H102.773ZM108.778 40.326C108.778 40.542 108.724 40.77 108.616 41.01C108.52 41.238 108.346 41.436 108.094 41.604C107.854 41.772 107.53 41.892 107.122 41.964C106.714 42.024 106.21 42 105.61 41.892C105.442 41.868 105.298 41.844 105.178 41.82C105.07 41.796 104.986 41.784 104.926 41.784C104.83 41.808 104.746 41.832 104.674 41.856C104.602 41.868 104.536 41.898 104.476 41.946C104.404 41.97 104.38 41.94 104.404 41.856C104.488 41.676 104.53 41.478 104.53 41.262C104.542 41.034 104.536 40.824 104.512 40.632C104.476 40.416 104.428 40.188 104.368 39.948V39.912C104.368 39.912 104.386 39.9 104.422 39.876C104.434 39.876 104.452 39.888 104.476 39.912C104.488 39.924 104.494 39.936 104.494 39.948C104.602 40.332 104.764 40.662 104.98 40.938C105.196 41.202 105.43 41.412 105.682 41.568C106.162 41.82 106.552 41.85 106.852 41.658C107.164 41.466 107.32 41.124 107.32 40.632C107.32 40.452 107.278 40.296 107.194 40.164C107.122 40.02 107.014 39.894 106.87 39.786C106.738 39.666 106.576 39.552 106.384 39.444C106.204 39.324 106.012 39.198 105.808 39.066C105.172 38.67 104.728 38.25 104.476 37.806C104.236 37.362 104.146 36.96 104.206 36.6C104.278 36.228 104.476 35.928 104.8 35.7C105.124 35.46 105.55 35.346 106.078 35.358C106.27 35.358 106.456 35.376 106.636 35.412C106.828 35.436 107.002 35.466 107.158 35.502C107.326 35.526 107.464 35.55 107.572 35.574C107.692 35.586 107.776 35.592 107.824 35.592C108.004 35.568 108.154 35.52 108.274 35.448C108.346 35.4 108.376 35.424 108.364 35.52C108.268 35.712 108.214 35.916 108.202 36.132C108.202 36.348 108.214 36.552 108.238 36.744C108.274 36.96 108.322 37.188 108.382 37.428V37.464C108.382 37.488 108.364 37.5 108.328 37.5C108.316 37.5 108.298 37.488 108.274 37.464C108.262 37.452 108.256 37.44 108.256 37.428C108.16 37.128 108.034 36.858 107.878 36.618C107.722 36.378 107.548 36.18 107.356 36.024C107.164 35.856 106.966 35.736 106.762 35.664C106.558 35.58 106.366 35.55 106.186 35.574C106.03 35.598 105.88 35.676 105.736 35.808C105.592 35.94 105.514 36.114 105.502 36.33C105.49 36.546 105.568 36.792 105.736 37.068C105.916 37.344 106.246 37.632 106.726 37.932C107.074 38.16 107.374 38.364 107.626 38.544C107.89 38.712 108.106 38.892 108.274 39.084C108.61 39.456 108.778 39.87 108.778 40.326ZM112.657 41.478C112.681 41.502 112.687 41.52 112.675 41.532C112.675 41.544 112.675 41.556 112.675 41.568C112.663 41.58 112.657 41.592 112.657 41.604C112.489 41.736 112.327 41.838 112.171 41.91C112.027 41.97 111.835 42 111.595 42C111.079 42 110.749 41.808 110.605 41.424C110.593 41.388 110.575 41.262 110.551 41.046C110.539 40.818 110.527 40.548 110.515 40.236C110.515 39.924 110.509 39.594 110.497 39.246C110.497 38.898 110.497 38.574 110.497 38.274C110.497 37.974 110.497 37.728 110.497 37.536C110.497 37.344 110.497 37.242 110.497 37.23C110.497 37.134 110.485 37.062 110.461 37.014C110.437 36.966 110.377 36.942 110.281 36.942H109.993C109.981 36.942 109.969 36.936 109.957 36.924C109.933 36.9 109.921 36.876 109.921 36.852C109.921 36.828 109.933 36.804 109.957 36.78L109.993 36.744H110.515C110.515 36.528 110.515 36.33 110.515 36.15C110.515 35.958 110.569 35.766 110.677 35.574C110.797 35.358 110.959 35.196 111.163 35.088C111.379 34.968 111.589 34.884 111.793 34.836C112.033 34.788 112.285 34.764 112.549 34.764C112.561 34.764 112.573 34.77 112.585 34.782C112.609 34.806 112.621 34.836 112.621 34.872C112.621 34.908 112.609 34.938 112.585 34.962C112.573 34.974 112.561 34.98 112.549 34.98C112.453 34.992 112.369 35.022 112.297 35.07C112.237 35.118 112.177 35.184 112.117 35.268C112.069 35.352 112.045 35.478 112.045 35.646C112.045 35.694 112.039 35.79 112.027 35.934C112.027 36.066 112.027 36.234 112.027 36.438V36.744H112.621C112.633 36.744 112.645 36.75 112.657 36.762C112.693 36.798 112.711 36.828 112.711 36.852C112.711 36.876 112.705 36.894 112.693 36.906C112.681 36.906 112.669 36.912 112.657 36.924C112.645 36.936 112.633 36.942 112.621 36.942H112.333C112.129 36.942 112.027 37.014 112.027 37.158V40.992C112.027 41.436 112.081 41.658 112.189 41.658C112.261 41.658 112.381 41.598 112.549 41.478C112.561 41.466 112.573 41.46 112.585 41.46C112.621 41.46 112.645 41.466 112.657 41.478ZM120.071 41.838C120.083 41.838 120.095 41.844 120.107 41.856C120.131 41.88 120.143 41.91 120.143 41.946C120.143 41.97 120.131 41.994 120.107 42.018C120.095 42.03 120.083 42.036 120.071 42.036C119.639 42.036 119.285 41.994 119.009 41.91C118.733 41.826 118.511 41.712 118.343 41.568C118.127 41.388 117.995 41.124 117.947 40.776C117.935 40.728 117.911 40.71 117.875 40.722C117.851 40.722 117.827 40.746 117.803 40.794C117.755 40.89 117.707 40.986 117.659 41.082C117.611 41.166 117.557 41.25 117.497 41.334C117.365 41.538 117.191 41.706 116.975 41.838C116.771 41.97 116.537 42.03 116.273 42.018C115.709 42.018 115.277 41.868 114.977 41.568C114.797 41.388 114.671 41.178 114.599 40.938C114.527 40.686 114.479 40.422 114.455 40.146C114.431 39.858 114.419 39.57 114.419 39.282C114.431 38.982 114.437 38.694 114.437 38.418C114.437 38.202 114.437 37.992 114.437 37.788C114.437 37.584 114.437 37.398 114.437 37.23C114.437 37.062 114.437 36.924 114.437 36.816C114.449 36.696 114.461 36.618 114.473 36.582C114.533 36.27 114.671 36.036 114.887 35.88C115.103 35.712 115.331 35.592 115.571 35.52C115.847 35.436 116.153 35.394 116.489 35.394C116.501 35.394 116.513 35.4 116.525 35.412C116.549 35.436 116.561 35.466 116.561 35.502C116.561 35.538 116.549 35.568 116.525 35.592C116.513 35.604 116.501 35.61 116.489 35.61C116.381 35.622 116.291 35.652 116.219 35.7C116.159 35.748 116.099 35.814 116.039 35.898C115.991 35.982 115.967 36.108 115.967 36.276C115.967 36.276 115.967 36.342 115.967 36.474C115.967 36.594 115.967 36.756 115.967 36.96C115.967 37.152 115.961 37.374 115.949 37.626C115.949 37.878 115.949 38.13 115.949 38.382C115.949 38.802 115.943 39.24 115.931 39.696C115.919 40.14 115.949 40.584 116.021 41.028C116.057 41.232 116.123 41.394 116.219 41.514C116.327 41.634 116.447 41.7 116.579 41.712C116.711 41.724 116.849 41.682 116.993 41.586C117.149 41.478 117.299 41.304 117.443 41.064C117.575 40.836 117.683 40.62 117.767 40.416C117.851 40.2 117.893 39.984 117.893 39.768V38.31C117.893 37.866 117.893 37.482 117.893 37.158C117.905 36.822 117.917 36.63 117.929 36.582C117.989 36.27 118.127 36.036 118.343 35.88C118.559 35.712 118.787 35.592 119.027 35.52C119.303 35.436 119.609 35.394 119.945 35.394C119.957 35.394 119.969 35.4 119.981 35.412C120.005 35.436 120.017 35.466 120.017 35.502C120.017 35.538 120.005 35.568 119.981 35.592C119.969 35.604 119.957 35.61 119.945 35.61C119.837 35.622 119.747 35.652 119.675 35.7C119.615 35.748 119.555 35.814 119.495 35.898C119.447 35.982 119.423 36.108 119.423 36.276C119.423 36.276 119.423 36.372 119.423 36.564C119.423 36.756 119.417 37.002 119.405 37.302C119.405 37.59 119.405 37.914 119.405 38.274C119.405 38.622 119.405 38.964 119.405 39.3C119.405 39.624 119.405 39.912 119.405 40.164C119.405 40.416 119.411 40.59 119.423 40.686C119.459 41.034 119.519 41.316 119.603 41.532C119.699 41.736 119.855 41.838 120.071 41.838ZM127.679 41.82C127.691 41.82 127.703 41.826 127.715 41.838C127.739 41.862 127.751 41.886 127.751 41.91C127.751 41.946 127.739 41.976 127.715 42C127.703 42.012 127.691 42.018 127.679 42.018C127.007 42.018 126.503 41.958 126.167 41.838C125.831 41.718 125.591 41.574 125.447 41.406C125.339 41.25 125.195 41.262 125.015 41.442C124.859 41.574 124.667 41.7 124.439 41.82C124.223 41.928 123.959 41.982 123.647 41.982C122.939 41.982 122.381 41.766 121.973 41.334C121.625 41.01 121.391 40.608 121.271 40.128C121.151 39.648 121.103 39.156 121.127 38.652C121.115 38.1 121.187 37.608 121.343 37.176C121.499 36.732 121.727 36.354 122.027 36.042C122.531 35.538 123.161 35.286 123.917 35.286C124.337 35.286 124.685 35.382 124.961 35.574C125.009 35.598 125.057 35.598 125.105 35.574C125.153 35.538 125.177 35.496 125.177 35.448C125.189 35.376 125.195 35.322 125.195 35.286C125.195 35.238 125.195 35.208 125.195 35.196C125.195 35.1 125.201 35.01 125.213 34.926C125.225 34.842 125.255 34.752 125.303 34.656C125.411 34.416 125.573 34.236 125.789 34.116C126.005 33.984 126.221 33.888 126.437 33.828C126.689 33.768 126.953 33.738 127.229 33.738C127.241 33.738 127.253 33.744 127.265 33.756C127.289 33.78 127.301 33.81 127.301 33.846C127.301 33.882 127.289 33.912 127.265 33.936C127.253 33.948 127.241 33.954 127.229 33.954C127.133 33.966 127.049 33.996 126.977 34.044C126.917 34.092 126.857 34.158 126.797 34.242C126.749 34.326 126.725 34.452 126.725 34.62C126.725 34.656 126.719 34.836 126.707 35.16C126.707 35.472 126.707 35.808 126.707 36.168V37.59V40.11C126.743 40.614 126.827 41.028 126.959 41.352C127.091 41.664 127.331 41.82 127.679 41.82ZM123.413 41.424C123.605 41.616 123.839 41.688 124.115 41.64C124.403 41.58 124.649 41.472 124.853 41.316C124.961 41.208 125.045 41.1 125.105 40.992C125.177 40.872 125.213 40.71 125.213 40.506C125.213 40.398 125.207 40.278 125.195 40.146C125.195 40.014 125.195 39.81 125.195 39.534C125.195 39.246 125.189 38.85 125.177 38.346C125.177 37.842 125.177 37.164 125.177 36.312C125.177 36.12 125.105 35.964 124.961 35.844C124.817 35.712 124.643 35.622 124.439 35.574C124.247 35.526 124.049 35.52 123.845 35.556C123.641 35.58 123.479 35.652 123.359 35.772C123.191 35.952 123.077 36.252 123.017 36.672C122.969 37.08 122.951 37.632 122.963 38.328C122.963 38.676 122.963 39.012 122.963 39.336C122.963 39.66 122.975 39.96 122.999 40.236C123.035 40.5 123.083 40.734 123.143 40.938C123.203 41.142 123.293 41.304 123.413 41.424ZM131.135 33.99C130.907 33.99 130.709 33.912 130.541 33.756C130.385 33.588 130.307 33.39 130.307 33.162C130.307 32.934 130.385 32.742 130.541 32.586C130.709 32.43 130.907 32.352 131.135 32.352C131.351 32.352 131.537 32.436 131.693 32.604C131.861 32.76 131.945 32.946 131.945 33.162C131.945 33.39 131.861 33.588 131.693 33.756C131.537 33.912 131.351 33.99 131.135 33.99ZM132.503 41.802C132.587 41.802 132.629 41.838 132.629 41.91C132.629 41.97 132.587 42.006 132.503 42.018H129.137C129.113 42.018 129.095 42.012 129.083 42C129.059 41.976 129.047 41.94 129.047 41.892C129.047 41.868 129.059 41.844 129.083 41.82C129.095 41.808 129.113 41.802 129.137 41.802C129.473 41.802 129.713 41.748 129.857 41.64C130.001 41.532 130.073 41.304 130.073 40.956C130.061 40.236 130.055 39.57 130.055 38.958C130.055 38.706 130.055 38.454 130.055 38.202C130.055 37.938 130.055 37.692 130.055 37.464C130.067 37.236 130.079 37.038 130.091 36.87C130.103 36.702 130.121 36.582 130.145 36.51C130.241 36.15 130.427 35.862 130.703 35.646C130.991 35.43 131.459 35.334 132.107 35.358C132.119 35.358 132.131 35.364 132.143 35.376C132.167 35.4 132.179 35.43 132.179 35.466C132.179 35.502 132.167 35.532 132.143 35.556C132.131 35.568 132.119 35.574 132.107 35.574C132.011 35.586 131.927 35.616 131.855 35.664C131.795 35.712 131.735 35.778 131.675 35.862C131.627 35.946 131.603 36.072 131.603 36.24C131.591 36.54 131.585 36.954 131.585 37.482C131.585 37.998 131.585 38.514 131.585 39.03V40.956C131.585 41.304 131.651 41.532 131.783 41.64C131.927 41.748 132.167 41.802 132.503 41.802ZM139.509 38.544C139.497 39.324 139.347 39.966 139.059 40.47C138.771 40.974 138.411 41.352 137.979 41.604C137.559 41.844 137.103 41.964 136.611 41.964C136.119 41.952 135.663 41.826 135.243 41.586C134.835 41.334 134.493 40.968 134.217 40.488C133.953 39.996 133.827 39.39 133.839 38.67C133.851 37.938 133.995 37.32 134.271 36.816C134.559 36.312 134.913 35.934 135.333 35.682C135.753 35.418 136.209 35.28 136.701 35.268C137.193 35.244 137.643 35.352 138.051 35.592C138.471 35.82 138.819 36.18 139.095 36.672C139.371 37.164 139.509 37.788 139.509 38.544ZM134.073 38.67C134.073 39.09 134.205 39.432 134.469 39.696C134.733 39.948 135.057 40.128 135.441 40.236C135.825 40.344 136.239 40.38 136.683 40.344C137.127 40.308 137.541 40.218 137.925 40.074C138.309 39.918 138.621 39.714 138.861 39.462C139.113 39.198 139.239 38.892 139.239 38.544C139.227 38.16 139.089 37.848 138.825 37.608C138.573 37.356 138.255 37.182 137.871 37.086C137.487 36.978 137.073 36.936 136.629 36.96C136.185 36.984 135.771 37.068 135.387 37.212C135.003 37.344 134.685 37.536 134.433 37.788C134.181 38.028 134.061 38.322 134.073 38.67Z" fill="white"/>
</svg>
