<svg width="512" height="512" viewBox="0 0 512 512" fill="none" xmlns="http://www.w3.org/2000/svg">
<path d="M512 256C512 397.387 397.387 512 256 512C114.613 512 0 397.387 0 256C0 114.613 114.613 0 256 0C397.387 0 512 114.613 512 256Z" fill="url(#paint0_radial)"/>
<path d="M27.3359 93.4375C27.332 93.2578 27.3203 93.0781 27.3203 92.8984C27.3203 56.5859 56.7578 27.1523 93.0703 27.1523C123.895 27.1523 149.758 48.3711 156.871 76.9961C160.652 75.8711 164.652 75.2578 168.801 75.2578C191.828 75.2578 210.496 93.9258 210.496 116.953C210.496 139.98 191.828 158.648 168.801 158.648C155.48 158.648 43.3398 158.648 33.9414 158.648C15.75 158.648 1.00391 143.902 1.00391 125.711C1.00391 109.781 12.3086 96.4961 27.3359 93.4375V93.4375Z" fill="url(#paint1_radial)"/>
<path d="M485.523 254.316C485.523 380.93 382.879 483.574 256.262 483.574C129.648 483.574 27.0039 380.93 27.0039 254.316C27.0039 127.699 129.648 25.0586 256.262 25.0586C382.879 25.0586 485.523 127.699 485.523 254.316Z" fill="url(#paint2_radial)"/>
<path d="M444.645 254.316C444.645 358.355 360.301 442.695 256.262 442.695C152.223 442.695 67.8828 358.355 67.8828 254.316C67.8828 150.277 152.223 65.9375 256.262 65.9375C360.301 65.9375 444.645 150.277 444.645 254.316Z" fill="url(#paint3_radial)"/>
<path d="M426.746 254.316C426.746 348.469 350.418 424.797 256.262 424.797C162.109 424.797 85.7812 348.469 85.7812 254.316C85.7812 160.16 162.109 83.832 256.262 83.832C350.418 83.832 426.746 160.16 426.746 254.316Z" fill="url(#paint4_linear)"/>
<path d="M189.469 198.473C189.469 223.062 169.531 243 144.941 243C120.348 243 100.41 223.062 100.41 198.473C100.41 173.879 120.348 153.941 144.941 153.941C169.531 153.941 189.469 173.879 189.469 198.473Z" fill="url(#paint5_radial)"/>
<path d="M225.969 128.391C225.969 143.711 213.551 156.133 198.23 156.133C182.91 156.133 170.488 143.711 170.488 128.391C170.488 113.074 182.91 100.652 198.23 100.652C213.551 100.652 225.969 113.074 225.969 128.391Z" fill="url(#paint6_radial)"/>
<path d="M231.809 182.41C231.809 192.895 223.312 201.391 212.828 201.391C202.348 201.391 193.848 192.895 193.848 182.41C193.848 171.93 202.348 163.43 212.828 163.43C223.312 163.43 231.809 171.93 231.809 182.41Z" fill="url(#paint7_radial)"/>
<defs>
<radialGradient id="paint0_radial" cx="0" cy="0" r="1" gradientUnits="userSpaceOnUse" gradientTransform="translate(215.843 185.726) scale(336.69)">
<stop stop-color="#3B395F"/>
<stop offset="0.3952" stop-color="#39375D"/>
<stop offset="0.6279" stop-color="#323154"/>
<stop offset="0.8179" stop-color="#262846"/>
<stop offset="0.9849" stop-color="#151A32"/>
<stop offset="1" stop-color="#131830"/>
</radialGradient>
<radialGradient id="paint1_radial" cx="0" cy="0" r="1" gradientUnits="userSpaceOnUse" gradientTransform="translate(62.9172 20.7663) scale(178.735)">
<stop stop-color="#CFCED3"/>
<stop offset="0.8111" stop-color="#A5ABBD"/>
<stop offset="1" stop-color="#9AA2B7"/>
</radialGradient>
<radialGradient id="paint2_radial" cx="0" cy="0" r="1" gradientUnits="userSpaceOnUse" gradientTransform="translate(254.211 252.263) scale(228.736)">
<stop stop-color="#FFD459"/>
<stop offset="0.2367" stop-color="#FFD55C" stop-opacity="0.764706"/>
<stop offset="0.3932" stop-color="#FFD765" stop-opacity="0.607843"/>
<stop offset="0.5265" stop-color="#FFDB74" stop-opacity="0.47451"/>
<stop offset="0.6468" stop-color="#FFE089" stop-opacity="0.352941"/>
<stop offset="0.7583" stop-color="#FFE8A4" stop-opacity="0.243137"/>
<stop offset="0.8635" stop-color="#FFF0C6" stop-opacity="0.137255"/>
<stop offset="0.9617" stop-color="#FFFAED" stop-opacity="0.039216"/>
<stop offset="1" stop-color="white" stop-opacity="0"/>
</radialGradient>
<radialGradient id="paint3_radial" cx="0" cy="0" r="1" gradientUnits="userSpaceOnUse" gradientTransform="translate(206.133 179.545) scale(254.093)">
<stop stop-color="#FFEBC9"/>
<stop offset="0.2771" stop-color="#FFE9C5"/>
<stop offset="0.5263" stop-color="#FEE2BB"/>
<stop offset="0.7641" stop-color="#FDD7A8"/>
<stop offset="0.9948" stop-color="#FBC78F"/>
<stop offset="1" stop-color="#FBC78E"/>
</radialGradient>
<linearGradient id="paint4_linear" x1="90.0409" y1="51.3497" x2="280.786" y2="284.26" gradientUnits="userSpaceOnUse">
<stop stop-color="white"/>
<stop offset="0.4417" stop-color="#FFEBC9"/>
<stop offset="0.5964" stop-color="#FFE9C5"/>
<stop offset="0.7356" stop-color="#FEE2BB"/>
<stop offset="0.8683" stop-color="#FDD7A8"/>
<stop offset="0.9971" stop-color="#FBC78F"/>
<stop offset="1" stop-color="#FBC78E"/>
</linearGradient>
<radialGradient id="paint5_radial" cx="0" cy="0" r="1" gradientUnits="userSpaceOnUse" gradientTransform="translate(162.264 213.956) rotate(180) scale(75.0775)">
<stop stop-color="#FFEBC9"/>
<stop offset="0.3433" stop-color="#FFE9C6"/>
<stop offset="0.567" stop-color="#FEE4BE"/>
<stop offset="0.7566" stop-color="#FDDBAF"/>
<stop offset="0.9261" stop-color="#FCCE9A"/>
<stop offset="1" stop-color="#FBC78E"/>
</radialGradient>
<radialGradient id="paint6_radial" cx="0" cy="0" r="1" gradientUnits="userSpaceOnUse" gradientTransform="translate(210.72 143.053) rotate(180) scale(50.6888)">
<stop stop-color="#FFEBC9"/>
<stop offset="0.2771" stop-color="#FFE9C5"/>
<stop offset="0.5263" stop-color="#FEE2BB"/>
<stop offset="0.7641" stop-color="#FDD7A8"/>
<stop offset="0.9948" stop-color="#FBC78F"/>
<stop offset="1" stop-color="#FBC78E"/>
</radialGradient>
<radialGradient id="paint7_radial" cx="0" cy="0" r="1" gradientUnits="userSpaceOnUse" gradientTransform="translate(217.879 189.945) rotate(180) scale(31.8865)">
<stop stop-color="#FFEBC9"/>
<stop offset="0.2771" stop-color="#FFE9C5"/>
<stop offset="0.5263" stop-color="#FEE2BB"/>
<stop offset="0.7641" stop-color="#FDD7A8"/>
<stop offset="0.9948" stop-color="#FBC78F"/>
<stop offset="1" stop-color="#FBC78E"/>
</radialGradient>
</defs>
</svg>
